<svg width="1000" height="203" viewBox="0 0 1000 203" fill="currentColor" xmlns="http://www.w3.org/2000/svg">
<g clip-path="url(#clip0_732_1336)">
<path d="M941.777 51.2118C958.018 51.2118 971.114 56.1866 981.063 66.1363C991.159 75.9396 996.207 88.6693 996.207 104.325C996.207 119.981 991.159 132.784 981.063 142.734C971.114 152.537 958.018 157.439 941.777 157.439C925.389 157.439 912.147 152.537 902.051 142.734C892.102 132.784 887.127 119.981 887.127 104.325C887.127 88.6693 892.102 75.9396 902.051 66.1363C912.147 56.1866 925.389 51.2118 941.777 51.2118ZM924.219 124.956C928.608 130.224 934.461 132.857 941.777 132.857C949.093 132.857 954.872 130.224 959.116 124.956C963.505 119.689 965.7 112.812 965.7 104.325C965.7 95.8389 963.505 88.9619 959.116 83.6945C954.872 78.427 949.093 75.7933 941.777 75.7933C934.461 75.7933 928.608 78.427 924.219 83.6945C919.829 88.9619 917.634 95.8389 917.634 104.325C917.634 112.812 919.829 119.689 924.219 124.956Z" fill="currentColor"/>
<path d="M710.276 51.2118C723.591 51.2118 734.126 54.7234 741.881 61.7467C749.782 68.6237 753.733 77.2565 753.733 87.6451L753.074 95.3268L726.517 96.8631C726.81 96.2779 726.956 94.7415 726.956 92.2541C726.956 87.5719 725.42 83.6945 722.347 80.6218C719.421 77.4028 715.251 75.7933 709.837 75.7933C702.96 75.7933 697.4 78.3539 693.157 83.475C689.06 88.5962 687.011 95.3268 687.011 103.667C687.011 112.739 689.279 119.908 693.815 125.176C698.497 130.297 705.155 132.857 713.788 132.857C726.078 132.857 735.516 128.834 742.1 120.786L756.805 139.661C753.001 144.49 747.221 148.66 739.466 152.172C731.712 155.683 722.494 157.439 711.812 157.439C694.693 157.439 681.159 152.61 671.209 142.953C661.406 133.15 656.504 120.42 656.504 104.764C656.504 88.8156 661.479 75.9396 671.428 66.1363C681.378 56.1866 694.327 51.2118 710.276 51.2118Z" fill="currentColor"/>
<path d="M600.885 134.613C611.566 134.613 620.492 130.663 627.661 122.762L641.927 139.222C637.977 144.343 632.124 148.66 624.369 152.172C616.76 155.683 607.762 157.439 597.373 157.439C580.254 157.439 566.646 152.537 556.55 142.734C546.601 132.931 541.626 120.128 541.626 104.325C541.626 88.6693 546.454 75.9396 556.111 66.1363C565.769 56.1866 578.571 51.2118 594.52 51.2118C609.298 51.2118 620.931 55.7477 629.417 64.8194C637.904 73.8912 642.147 85.6698 642.147 100.155L641.269 111.129H571.475C572.792 118.299 575.938 124.005 580.912 128.248C585.887 132.492 592.545 134.613 600.885 134.613ZM594.52 74.0375C588.521 74.0375 583.4 75.9396 579.157 79.7439C575.06 83.4019 572.499 88.6693 571.475 95.5463H614.712C614.566 89.2546 612.664 84.1334 609.006 80.1828C605.494 76.0859 600.665 74.0375 594.52 74.0375Z" fill="currentColor"/>
<path d="M498.601 52.5286H522.305V152.172C522.305 167.389 517.038 179.606 506.503 188.824C495.968 198.042 481.848 202.651 464.143 202.651C445.268 202.651 429.759 198.554 417.614 190.361L420.617 169.635C430.128 176.805 450.463 178.509 463.485 178.509C472.264 178.509 479.214 176.314 484.335 171.925C489.603 167.681 492.237 161.39 492.237 153.049V140.32C485.506 150.123 475.117 155.025 461.071 155.025C447.317 155.025 436.05 150.489 427.271 141.417C418.492 132.199 414.103 119.396 414.103 103.009C414.103 87.3525 418.273 74.8422 426.613 65.4778C434.953 55.9671 446.219 51.2118 460.412 51.2118C476.946 51.2118 488.286 58.1619 494.431 72.0622H495.09C494.943 70.4527 495.236 67.5263 495.968 63.2831C496.699 59.0398 497.577 55.455 498.601 52.5286ZM468.533 129.785C475.703 129.785 481.409 127.297 485.652 122.323C490.042 117.201 492.237 111.568 492.237 105.423V100.814C492.237 94.2294 490.042 88.523 485.652 83.6945C481.263 78.866 475.337 76.4517 467.875 76.4517C460.851 76.4517 455.218 78.866 450.975 83.6945C446.732 88.523 444.61 94.961 444.61 103.009C444.61 111.202 446.732 117.714 450.975 122.542C455.364 127.371 461.217 129.785 468.533 129.785Z" fill="currentColor"/>
<path d="M356.727 51.2118C369.164 51.2118 378.675 55.0161 385.259 62.6246C391.99 70.2332 395.355 80.1828 395.355 92.4736V156.122H365.287V97.7411C365.287 91.4494 363.677 86.4745 360.458 82.8166C357.385 79.0123 352.923 77.1102 347.07 77.1102C339.9 77.1102 334.413 79.6707 330.609 84.7919C326.951 89.913 325.122 95.8389 325.122 102.57V156.122H295.054V52.5286L318.538 51.6507C321.025 59.4056 322.269 66.6484 322.269 73.379H323.147C329.146 58.6009 340.339 51.2118 356.727 51.2118Z" fill="currentColor"/>
<path d="M274.858 19.3866C274.858 24.8004 272.956 29.2631 269.152 32.7747C265.348 36.2864 260.739 38.0422 255.325 38.0422C249.911 38.0422 245.302 36.2864 241.498 32.7747C237.84 29.2631 236.011 24.8004 236.011 19.3866C236.011 14.1191 237.84 9.72959 241.498 6.21795C245.302 2.55999 249.911 0.731018 255.325 0.731018C260.739 0.731018 265.348 2.55999 269.152 6.21795C272.956 9.72959 274.858 14.1191 274.858 19.3866ZM240.181 156.121V52.5277L270.249 51.6498V156.121H240.181Z" fill="currentColor"/>
<path d="M166.532 51.2118C182.773 51.2118 195.869 56.1866 205.818 66.1363C215.914 75.9396 220.962 88.6693 220.962 104.325C220.962 119.981 215.914 132.784 205.818 142.734C195.869 152.537 182.773 157.439 166.532 157.439C150.144 157.439 136.902 152.537 126.806 142.734C116.857 132.784 111.882 119.981 111.882 104.325C111.882 88.6693 116.857 75.9396 126.806 66.1363C136.902 56.1866 150.144 51.2118 166.532 51.2118ZM148.974 124.956C153.363 130.224 159.216 132.857 166.532 132.857C173.848 132.857 179.627 130.224 183.871 124.956C188.26 119.689 190.455 112.812 190.455 104.325C190.455 95.8389 188.26 88.9619 183.871 83.6945C179.627 78.427 173.848 75.7933 166.532 75.7933C159.216 75.7933 153.363 78.427 148.974 83.6945C144.584 88.9619 142.389 95.8389 142.389 104.325C142.389 112.812 144.584 119.689 148.974 124.956Z" fill="currentColor"/>
<path d="M53.772 51.2118C67.087 51.2118 77.6219 54.7234 85.3768 61.7467C93.278 68.6237 97.2286 77.2565 97.2286 87.6451L96.5702 95.3268L70.0134 96.8631C70.306 96.2779 70.4523 94.7415 70.4523 92.2541C70.4523 87.5719 68.916 83.6945 65.8433 80.6218C62.9169 77.4028 58.7469 75.7933 53.3331 75.7933C46.4561 75.7933 40.896 78.3539 36.6528 83.475C32.5559 88.5962 30.5074 95.3268 30.5074 103.667C30.5074 112.739 32.7753 119.908 37.3112 125.176C41.9934 130.297 48.6509 132.857 57.2837 132.857C69.5744 132.857 79.012 128.834 85.5963 120.786L100.301 139.661C96.497 144.49 90.7174 148.66 82.9626 152.172C75.2077 155.683 65.9896 157.439 55.3084 157.439C38.1891 157.439 24.6547 152.61 14.705 142.953C4.90167 133.15 0 120.42 0 104.764C0 88.8156 4.97483 75.9396 14.9245 66.1363C24.8741 56.1866 37.8233 51.2118 53.772 51.2118Z" fill="currentColor"/>
<path d="M850.103 110.007C856.336 120.92 862.561 129.798 869.046 139.047C871.859 143.059 874.721 147.141 877.654 151.489C881.38 157.013 876.548 163.633 870.39 161.086C846.379 151.152 828.838 132.46 816.821 114.862H803.942V156.124H773.874V1.17236H803.942V91.3777H816.672C824.866 91.3777 831.304 88.8903 835.986 83.9154C840.668 78.9406 843.009 71.8442 843.009 62.6261C843.009 60.285 842.717 56.9197 842.132 52.5301H870.883C871.615 55.8955 871.981 59.4803 871.981 63.2845C871.981 83.6637 862.882 101.123 850.103 110.007Z" fill="currentColor"/>
</g>
<defs>
<clipPath id="clip0_732_1336">
<rect width="1000" height="201.923" fill="currentColor" transform="translate(0 0.731018)"/>
</clipPath>
</defs>
</svg>
